<svg viewBox="0 0 16 16" xmlns="http://www.w3.org/2000/svg"><g fill="#303E48" fill-rule="evenodd"><g transform="translate(3)"><path d="m11.502 12.02c-.25 0-.453-.161-.453-.36v-10.619c0-.199.203-.36.453-.36s.454.161.454.36v10.619c0 .198-.204.36-.454.36z"/><ellipse cx="11.45" cy="13.017" rx="1.45" ry="2.017"/><path d="m.90587211 9.66353351c-.24940759.05566367-.86687211.0251525-.86687211-.09153351v-9.129c0-.158 1.01532125-.158 1.01532125 0l-.14132125 9.129c-.00026148.04131399.08117766.07182516-.00712789.09153351z"/><path d="m7 9.52v-9.236c0-.157 1.02392578.0084629 1.02392578.1654629v9.236c0 .157-1.02392578-.0084629-1.02392578-.1654629z"/></g><path d="m0 0h16v1.968628h-16z"/><path d="m1 3h12v1.021118h-12z"/><path d="m1 5h12v1.019897h-12z"/><path d="m1 7v.95422363h12v-.95422363z"/><path d="m1 9h12v1.992554h-12z"/></g></svg>