<?xml version="1.0" encoding="UTF-8"?>
<!DOCTYPE svg PUBLIC "-//W3C//DTD SVG 1.1//EN" "http://www.w3.org/Graphics/SVG/1.1/DTD/svg11.dtd">
<!-- Creator: CorelDRAW -->
<svg xmlns="http://www.w3.org/2000/svg" xml:space="preserve" width="1.70666in" height="1.70666in" version="1.1" style="shape-rendering:geometricPrecision; text-rendering:geometricPrecision; image-rendering:optimizeQuality; fill-rule:evenodd; clip-rule:evenodd"
viewBox="0 0 1707 1707"
 xmlns:xlink="http://www.w3.org/1999/xlink">
 <defs>
 </defs>
 <g id="Layer_x0020_1">
  <metadata id="CorelCorpID_0Corel-Layer"/>
  <g id="_300276752">
   <path fill="#303E48" d="M0 1229l0 -921c0,-159 129,-288 288,-288 159,0 288,129 288,288l0 921c-58,-98 -165,-165 -288,-165 -122,0 -229,66 -288,165zm445 -414c-13,0 -23,-11 -23,-24l0 -520c0,-13 10,-24 23,-24 13,0 24,11 24,24l0 520c0,13 -11,24 -24,24zm0 208c-13,0 -23,-11 -23,-24l0 -107c0,-13 10,-24 23,-24 13,0 24,11 24,24l0 107c0,13 -11,24 -24,24z"/>
   <path fill="#303E48" d="M288 1687c-159,0 -288,-129 -288,-288 0,-159 129,-288 288,-288 159,0 288,129 288,288 2,159 -129,288 -288,288zm0 -118c-94,0 -169,-99 -169,-219 0,-67 43,-123 96,-123 54,0 97,54 97,123 0,12 -11,23 -24,23 -13,0 -23,-11 -23,-23 0,-41 -24,-76 -50,-76 -28,0 -49,35 -49,76 0,94 56,174 124,174 69,0 125,-78 125,-174 0,-13 11,-24 24,-24 13,0 23,11 23,24 -2,120 -79,219 -174,219z"/>
  </g>
  <path fill="#303E48" d="M1683 1687l-1224 0c98,-58 165,-166 164,-288l0 -1091c0,-8 0,-16 -1,-24l1061 0c12,0 23,11 23,24l0 1355c0,13 -11,24 -23,24z"/>
 </g>
</svg>
